<svg id="visual" viewBox="0 0 900 600" width="900" height="600" xmlns="http://www.w3.org/2000/svg" xmlns:xlink="http://www.w3.org/1999/xlink" version="1.1"><rect x="0" y="0" width="900" height="600" fill="#7c3aed"></rect><g transform="translate(889.1655225548984 550.615671677356)"><path d="M233.8 -271.8C328.9 -252.7 449.8 -219.1 490.4 -146.9C531 -74.7 491.4 36.1 436.4 122.2C381.5 208.4 311.2 270.1 236 326.8C160.7 383.5 80.3 435.2 2.1 432.4C-76.2 429.6 -152.4 372.1 -243.9 320.7C-335.4 269.2 -442.1 223.8 -474.2 148.5C-506.3 73.2 -463.8 -31.8 -417.5 -123.7C-371.2 -215.6 -321.1 -294.3 -250.9 -321.5C-180.6 -348.6 -90.3 -324.3 -10.5 -309.9C69.4 -295.5 138.7 -290.9 233.8 -271.8" fill="#853eff"></path></g></svg>