<svg width="55" height="40" viewBox="0 0 55 40" fill="none" xmlns="http://www.w3.org/2000/svg">
<path fill-rule="evenodd" clip-rule="evenodd" d="M26.1967 0.203157C30.6164 -0.16904 32.1373 4.99872 36.1391 6.40119C40.139 7.80297 46.2865 5.75444 49.0851 8.22453C51.8698 10.6824 47.8889 14.4588 48.768 17.5476C49.6241 20.5555 55.226 22.8675 54.0935 25.8219C52.9441 28.8205 46.4414 28.8266 43.5524 31.1545C40.8268 33.3506 41.7149 37.7123 37.9186 38.8549C34.0628 40.0156 30.0578 37.0507 25.9439 36.4546C22.6354 35.9753 18.9729 36.8302 16.0051 35.68C13.0517 34.5353 12.1805 31.814 9.73352 30.1718C6.80785 28.2084 1.11242 27.8624 0.209027 25.0793C-0.691452 22.3051 4.28791 20.2835 5.65806 17.6162C6.84064 15.314 5.45192 12.3535 7.69927 10.4976C9.95436 8.63533 14.5974 9.50089 17.3193 7.98607C21.0658 5.901 21.4632 0.601776 26.1967 0.203157Z" fill="white"/>
</svg>
