<svg xmlns="http://www.w3.org/2000/svg" viewBox="0 0 1920 1080"><g transform="          rotate(248 960 540)           translate(-982.0161081399262 -552.3840608287085)          scale(2.0229334459790898)        "><rect width="1920" height="1080" fill="rgb(124, 58, 237)"></rect><g transform="translate(0, 0)"><path fill="rgb(106, 45, 210)" fill-opacity="1" d="M0,264.707L106.667,262.556C213.333,260.405,426.667,256.103,640,255.436C853.333,254.769,1066.667,257.737,1280,258.071C1493.333,258.405,1706.667,256.104,1813.333,254.954L1920,253.803L1920,1080L1813.333,1080C1706.667,1080,1493.333,1080,1280,1080C1066.667,1080,853.333,1080,640,1080C426.667,1080,213.333,1080,106.667,1080L0,1080Z"></path></g><g transform="translate(0, 270)"><path fill="rgb(87, 33, 184)" fill-opacity="1" d="M0,88.404L106.667,111.315C213.333,134.225,426.667,180.045,640,166.002C853.333,151.959,1066.667,78.052,1280,73.86C1493.333,69.669,1706.667,135.193,1813.333,167.955L1920,200.718L1920,810L1813.333,810C1706.667,810,1493.333,810,1280,810C1066.667,810,853.333,810,640,810C426.667,810,213.333,810,106.667,810L0,810Z"></path></g><g transform="translate(0, 540)"><path fill="rgb(69, 20, 157)" fill-opacity="1" d="M0,102.07L106.667,88.075C213.333,74.081,426.667,46.091,640,60.539C853.333,74.987,1066.667,131.872,1280,142.129C1493.333,152.386,1706.667,116.015,1813.333,97.83L1920,79.644L1920,540L1813.333,540C1706.667,540,1493.333,540,1280,540C1066.667,540,853.333,540,640,540C426.667,540,213.333,540,106.667,540L0,540Z"></path></g><g transform="translate(0, 810)"><path fill="rgb(50, 7, 130)" fill-opacity="1" d="M0,79.529L106.667,105.937C213.333,132.344,426.667,185.158,640,213.523C853.333,241.888,1066.667,245.804,1280,213.506C1493.333,181.208,1706.667,112.697,1813.333,78.441L1920,44.186L1920,270L1813.333,270C1706.667,270,1493.333,270,1280,270C1066.667,270,853.333,270,640,270C426.667,270,213.333,270,106.667,270L0,270Z"></path></g></g></svg>